<svg xmlns="http://www.w3.org/2000/svg" viewBox="0 0 24 24" width="24" height="24"><path fill="#1a1a2e" d="M12 .5C5.37.5 0 5.78 0 12.29c0 5.21 3.44 9.63 8.21 11.19.6.11.82-.26.82-.58 0-.29-.01-1.04-.02-2.05-3.34.72-4.04-1.59-4.04-1.59-.55-1.38-1.34-1.75-1.34-1.75-1.09-.74.08-.73.08-.73 1.21.08 1.84 1.23 1.84 1.23 1.07 1.81 2.81 1.29 3.5.99.11-.77.42-1.29.76-1.59-2.67-.3-5.47-1.32-5.47-5.87 0-1.3.47-2.36 1.24-3.19-.12-.3-.54-1.51.12-3.15 0 0 1.01-.32 3.3 1.22.96-.26 1.98-.39 3-.4 1.02.01 2.04.14 3 .4 2.29-1.54 3.3-1.22 3.3-1.22.66 1.64.24 2.85.12 3.15.77.83 1.24 1.89 1.24 3.19 0 4.56-2.81 5.57-5.49 5.86.43.36.81 1.08.81 2.18 0 1.58-.01 2.85-.01 3.24 0 .32.21.7.82.58A12.01 12.01 0 0 0 24 12.29C24 5.78 18.63.5 12 .5z"/></svg>
